<svg xmlns="http://www.w3.org/2000/svg" viewBox="0 0 1876 454" fill="currentColor"><path d="M 1430.358 12.994 C 1425.378 14.118, 1420.598 17.582, 1418.345 21.701 C 1417.201 23.790, 1415.262 29.775, 1414.035 35 C 1412.809 40.225, 1409.353 54.625, 1406.356 67 C 1403.359 79.375, 1400.013 93.550, 1398.921 98.500 C 1397.828 103.450, 1395.412 113.800, 1393.551 121.500 C 1391.690 129.200, 1388.280 143.600, 1385.974 153.500 C 1383.667 163.400, 1379.184 182.300, 1376.010 195.500 C 1367.645 230.291, 1359.737 263.956, 1352.989 293.500 C 1350.728 303.400, 1346.465 321.400, 1343.514 333.500 C 1334.727 369.543, 1334.728 369.533, 1339.162 372.330 C 1342.892 374.683, 1346.432 371.857, 1369.410 348.176 C 1382.045 335.154, 1430.435 286.378, 1476.942 239.784 C 1529.342 187.286, 1562.014 153.823, 1562.851 151.793 C 1564.847 146.956, 1563.979 137.060, 1561.256 133.598 C 1556.141 127.096, 1444.103 14.992, 1441.913 14.186 C 1437.832 12.683, 1433.645 12.251, 1430.358 12.994 M 1742.500 14.558 C 1738.263 16.693, 1736.981 17.964, 1559.495 196 C 1326.521 429.695, 1336 420.034, 1336 423.792 C 1336 426.054, 1336.705 427.416, 1338.479 428.578 C 1340.716 430.044, 1341.374 430.057, 1345.229 428.706 C 1348.957 427.401, 1404.769 401.181, 1443.800 382.400 C 1451.114 378.880, 1457.294 376, 1457.533 376 C 1457.772 376, 1465.462 372.400, 1474.623 368 C 1483.784 363.600, 1491.412 360, 1491.573 360 C 1491.734 360, 1499.814 356.175, 1509.529 351.500 C 1519.244 346.825, 1527.330 343, 1527.500 343 C 1527.669 343, 1537.188 338.555, 1548.654 333.122 C 1572.352 321.892, 1576.363 320.006, 1617 300.974 C 1633.225 293.375, 1654.150 283.530, 1663.500 279.097 C 1682.461 270.107, 1687.435 269.124, 1694.790 272.910 C 1696.902 273.998, 1732.033 308.449, 1776.367 352.910 C 1834.648 411.358, 1854.816 431, 1856.545 431 C 1857.872 431, 1859.778 429.830, 1861.025 428.250 C 1864.125 424.321, 1864.725 427.458, 1847.495 357.500 C 1844.514 345.400, 1840.506 328.525, 1838.586 320 C 1836.666 311.475, 1833.033 295.950, 1830.512 285.500 C 1827.990 275.050, 1825.292 263.800, 1824.516 260.500 C 1823.739 257.200, 1820.872 245.275, 1818.144 234 C 1815.417 222.725, 1811.745 207.200, 1809.984 199.500 C 1808.223 191.800, 1804.292 175.150, 1801.249 162.500 C 1798.207 149.850, 1795.337 137.700, 1794.871 135.500 C 1794.406 133.300, 1793.119 127.675, 1792.012 123 C 1790.905 118.325, 1788.673 108.650, 1787.052 101.500 C 1785.432 94.350, 1782.759 82.875, 1781.113 76 C 1779.467 69.125, 1776.509 56.075, 1774.540 47 C 1769.727 24.822, 1769.345 23.564, 1766.348 20.001 C 1760.881 13.505, 1749.667 10.945, 1742.500 14.558 M 702.684 14.649 C 702.308 15.026, 702 68.808, 702 134.167 L 702 253 727.004 253 L 752.008 253 751.754 133.750 L 751.500 14.500 727.434 14.233 C 714.198 14.086, 703.060 14.273, 702.684 14.649 M 13.469 29.230 C 13.203 29.929, 13.101 80.450, 13.243 141.500 L 13.500 252.500 37.500 252.500 L 61.500 252.500 61.757 188.250 C 61.899 152.912, 62.389 124, 62.847 124 C 63.305 124, 68.339 131.988, 74.034 141.750 C 79.730 151.512, 86.331 162.548, 88.704 166.274 C 91.077 170, 95.429 177.200, 98.376 182.274 C 109.080 200.704, 124.352 225.553, 126.327 227.750 C 128.177 229.809, 129.229 230, 138.740 230 C 144.455 230, 149.976 229.548, 151.009 228.995 C 152.041 228.443, 154.877 224.505, 157.309 220.245 C 161.803 212.377, 170.036 198.280, 198.918 149 C 207.783 133.875, 215.478 121.350, 216.018 121.167 C 216.654 120.951, 217 144.099, 217 186.917 L 217 253 241.504 253 L 266.009 253 265.754 140.750 L 265.500 28.500 244.277 28.230 L 223.055 27.960 220.640 31.730 C 216.018 38.945, 168.549 119.658, 155.070 143.221 C 147.606 156.267, 141.050 166.931, 140.500 166.917 C 139.950 166.903, 127.878 147.454, 113.673 123.696 C 99.469 99.938, 80.785 68.800, 72.154 54.500 L 56.461 28.500 35.207 28.230 C 18.747 28.021, 13.843 28.247, 13.469 29.230 M 374 77.718 C 363.509 78.576, 349.925 81.055, 342 83.557 C 333.413 86.267, 312.697 96.064, 311.518 97.972 C 310.867 99.025, 326.512 131.001, 328.220 132.108 C 328.736 132.442, 332.610 130.741, 336.829 128.328 C 361.653 114.130, 393.895 113.433, 409.080 126.765 C 413.990 131.076, 417.148 137.971, 417.771 145.741 L 418.295 152.267 395.898 151.782 C 359.378 150.990, 343.842 153.245, 327.828 161.659 C 310.691 170.665, 302.432 188.561, 305.147 210.807 C 307.624 231.115, 322.318 246.523, 345.545 253.170 C 352.204 255.076, 355.943 255.451, 368.500 255.473 C 385.902 255.504, 393.417 254.199, 403.705 249.358 C 409.175 246.784, 412.185 244.518, 416.205 239.945 L 421.500 233.922 422 243.211 L 422.500 252.500 444.500 253 C 457.464 253.295, 467.046 253.115, 467.829 252.562 C 468.915 251.795, 469.079 241.420, 468.725 195.562 C 468.317 142.689, 468.171 138.997, 466.168 130.650 C 462.744 116.386, 458.074 107.827, 448.616 98.478 C 436.316 86.320, 425.390 81.528, 403 78.472 C 393.068 77.117, 384.173 76.885, 374 77.718 M 1190.204 78.173 C 1169.227 80.805, 1151.444 87.911, 1140.708 97.954 C 1129.687 108.264, 1125.453 119.947, 1126.196 137.993 C 1126.715 150.578, 1129.223 157.117, 1136.528 164.927 C 1148.111 177.310, 1158.523 180.789, 1204 187.471 C 1217.623 189.473, 1223.339 191.426, 1226.471 195.148 C 1229.811 199.117, 1230.515 202.337, 1229.086 207.106 C 1228.267 209.840, 1226.759 211.793, 1224.116 213.542 C 1216.686 218.459, 1193.299 219.147, 1173.500 215.030 C 1162.117 212.663, 1156.588 210.799, 1146.170 205.814 C 1141.588 203.621, 1137.656 202.011, 1137.431 202.235 C 1137.207 202.460, 1133.394 210.185, 1128.957 219.404 C 1122.901 231.989, 1121.161 236.489, 1121.974 237.469 C 1123.588 239.413, 1136.423 245.406, 1145.305 248.363 C 1161.491 253.750, 1173.555 255.408, 1196.500 255.399 C 1216.042 255.390, 1218.229 255.202, 1228 252.688 C 1233.775 251.203, 1242.585 247.984, 1247.577 245.536 C 1255.079 241.857, 1257.963 239.714, 1264.202 233.184 C 1272.668 224.323, 1275.040 219.427, 1276.939 206.903 C 1279.274 191.497, 1275.209 178.360, 1265.002 168.324 C 1254.789 158.282, 1243.118 154.508, 1202.053 147.966 C 1179.754 144.414, 1174 141.195, 1174 132.270 C 1174 123.397, 1180.083 118.866, 1194.597 116.925 C 1212.556 114.523, 1232.893 117.428, 1247.896 124.536 C 1251.964 126.464, 1255.419 127.914, 1255.574 127.760 C 1256.863 126.470, 1270.216 96.018, 1270.340 94.085 C 1270.483 91.854, 1269.576 91.185, 1262 87.933 C 1241.149 78.981, 1213.609 75.237, 1190.204 78.173 M 861.500 78.629 C 855.291 79.563, 839.313 84.389, 834.500 86.785 C 810.103 98.927, 794.855 118.137, 788.049 145.304 C 785 157.473, 784.983 176.183, 788.009 188.035 C 796.482 221.221, 819.993 244.094, 855 253.208 C 862.468 255.152, 866.050 255.421, 884.500 255.419 C 903.958 255.417, 906.381 255.212, 917.500 252.622 C 924.100 251.085, 931.300 249.039, 933.500 248.076 C 938.319 245.966, 947.297 237.923, 951.713 231.760 L 954.926 227.277 942.332 213.388 C 935.406 205.750, 929.357 199.353, 928.890 199.173 C 928.423 198.994, 925.894 200.649, 923.270 202.852 C 912.287 212.073, 900.201 215.527, 882 214.646 C 875.675 214.339, 868.336 213.407, 865.690 212.574 C 851.238 208.024, 839.711 196.639, 837.472 184.703 L 836.777 181 900.689 181 C 949.064 181, 964.892 180.708, 965.800 179.800 C 966.598 179.002, 967 174.635, 967 166.758 C 967 123.867, 942.837 90.793, 904 80.524 C 897.623 78.838, 868.689 77.548, 861.500 78.629 M 1084 80.039 C 1072.338 83.099, 1064.390 87.476, 1056.285 95.302 L 1049.070 102.270 1048.785 91.385 L 1048.500 80.500 1024.500 80.500 L 1000.500 80.500 1000.500 166.500 L 1000.500 252.500 1025.500 252.500 L 1050.500 252.500 1051.033 204.500 C 1051.387 172.586, 1051.946 155.426, 1052.700 153.295 C 1055.056 146.638, 1060.441 137.834, 1064.276 134.370 C 1072.782 126.685, 1087.608 122.289, 1100.552 123.616 L 1107.038 124.280 1106.769 101.390 L 1106.500 78.500 1099 78.286 C 1094.119 78.146, 1088.881 78.758, 1084 80.039 M 485.415 82.516 C 486.050 85.047, 493.784 103.678, 505.749 131.500 C 509.297 139.750, 514.782 152.800, 517.939 160.500 C 521.096 168.200, 526.655 181.475, 530.292 190 C 533.929 198.525, 541.396 216.075, 546.884 229 L 556.862 252.500 583.052 252.500 L 609.242 252.500 618.486 230.500 C 623.570 218.400, 632.338 197.700, 637.970 184.500 C 643.602 171.300, 651.813 151.950, 656.216 141.500 C 660.619 131.050, 667.997 113.608, 672.611 102.740 C 677.225 91.872, 681 82.302, 681 81.472 C 681 80.163, 677.822 80, 656.820 80.232 L 632.641 80.500 628.941 89.500 C 626.906 94.450, 622.027 106.375, 618.100 116 C 605.675 146.449, 584.522 195.993, 583.946 195.996 C 583.400 196, 578.938 185.658, 572.299 169 C 570.436 164.325, 561.844 142.725, 553.206 121 C 544.568 99.275, 537.050 81.169, 536.500 80.765 C 535.950 80.361, 524.089 80.024, 510.142 80.015 L 484.783 80 485.415 82.516 M 866.999 117.353 C 853.287 120.308, 842.390 130.139, 837.518 143.950 C 834.641 152.104, 831.973 151.573, 877.367 151.886 C 922.043 152.193, 919.619 152.557, 918.336 145.739 C 916.567 136.344, 908.257 125.740, 898.892 120.929 C 890.082 116.404, 877.795 115.026, 866.999 117.353 M 374 181.649 C 360.243 183.721, 353.839 189.810, 353.735 200.919 C 353.635 211.491, 359.721 218.488, 371.148 220.938 C 388.247 224.605, 406.343 218.763, 414.556 206.924 C 417.299 202.970, 417.523 201.938, 417.838 191.840 L 418.177 181 397.338 181.136 C 385.877 181.211, 375.375 181.442, 374 181.649 M 1235.500 274.412 C 1228.562 277.495, 1224.963 285.223, 1227.028 292.600 C 1231.748 309.459, 1257.170 306.830, 1258.701 289.324 C 1259.269 282.827, 1256.729 278.206, 1250.964 275.250 C 1246.034 272.722, 1240.033 272.397, 1235.500 274.412 M 1128 323.659 C 1117.683 325.254, 1097.486 333.569, 1096.278 336.719 C 1095.702 338.218, 1098.349 344.160, 1102.933 351.664 L 1104.866 354.828 1113.683 350.346 C 1120.330 346.967, 1124.346 345.624, 1130 344.891 C 1144.632 342.995, 1157.742 346.042, 1162.841 352.525 C 1165.948 356.475, 1168.177 363.215, 1167.821 367.579 L 1167.500 371.500 1144 372.071 C 1123.266 372.575, 1119.811 372.896, 1114.649 374.802 C 1103.739 378.829, 1096.671 384.979, 1092.725 393.878 C 1089.650 400.811, 1089.880 413.617, 1093.211 421 C 1100.060 436.182, 1118.972 444.049, 1141.851 441.232 C 1151.946 439.989, 1159.946 436.752, 1164.572 432.040 C 1168.785 427.746, 1169.847 428.163, 1170.198 434.250 L 1170.500 439.500 1182.250 439.782 L 1194 440.063 1193.983 401.282 C 1193.964 359.248, 1193.341 352.670, 1188.613 344.602 C 1182.833 334.740, 1169.553 325.968, 1157.387 323.976 C 1151.743 323.051, 1133.220 322.852, 1128 323.659 M 1229.696 324.637 C 1229.313 325.020, 1229 351.069, 1229 382.524 L 1229 439.715 1235.147 440.358 C 1243.486 441.229, 1252.229 441.141, 1253.758 440.171 C 1254.750 439.541, 1254.962 427.222, 1254.758 381.936 L 1254.500 324.500 1242.446 324.221 C 1235.816 324.067, 1230.079 324.255, 1229.696 324.637 M 1134.468 389.992 C 1125.512 390.777, 1123.805 391.457, 1119.546 395.931 C 1117.045 398.559, 1116.539 399.989, 1116.242 405.267 C 1115.811 412.925, 1117.899 416.839, 1124.211 420.210 C 1130.187 423.401, 1146.209 423.496, 1153 420.381 C 1162.993 415.796, 1167.678 409.255, 1168.684 398.482 C 1169.557 389.134, 1169.310 388.970, 1154.628 389.144 C 1147.957 389.223, 1138.886 389.604, 1134.468 389.992"/></svg>